<svg id="Layer_1" data-name="Layer 1" xmlns="http://www.w3.org/2000/svg" viewBox="0 0 200 200"><defs><style>.cls-1{fill:#404041;}.cls-2{fill:#fff;}</style></defs><circle class="cls-1" cx="99.7" cy="99.83" r="96.96" transform="translate(-17.84 177.87) rotate(-78.62)"/><path class="cls-2" d="M129.45,130h10.09v7.84H124.13L98.64,99.62H85.06V130h13.3v7.84H64.89V130H76.38V62.65l-11.49-1.4V53.82A55.07,55.07,0,0,0,77.78,55.5c7.14,0,14.42-1.68,21.56-1.68,13.87,0,26.75,6.3,26.75,21.71,0,11.9-7.14,19.47-18.2,22.69ZM85.06,92.06l7.28.14c17.79.28,24.65-6.59,24.65-15.69,0-10.64-7.7-14.84-17.51-14.84a131.35,131.35,0,0,0-14.42,1Z"/></svg>