<svg id="Layer_1" data-name="Layer 1" xmlns="http://www.w3.org/2000/svg" viewBox="0 0 574.58 126.67"><defs><style>.cls-1{fill:#fff;}.cls-2{fill:#404041;}</style></defs><circle class="cls-1" cx="69.95" cy="63.56" r="54.33" transform="translate(-6.17 119.59) rotate(-78.62)"/><path class="cls-1" d="M135.84,79.67A21.25,21.25,0,0,0,147,82.85c6.43,0,10.18-3.39,10.18-8.31,0-4.48-2.6-7.15-9.17-9.61-8-2.89-12.86-7.08-12.86-13.87,0-7.58,6.28-13.22,15.75-13.22a21.88,21.88,0,0,1,10.69,2.38l-1.73,5.13A18.14,18.14,0,0,0,150.72,43c-6.65,0-9.18,4-9.18,7.3,0,4.55,3,6.79,9.69,9.39,8.23,3.18,12.35,7.16,12.35,14.31,0,7.51-5.49,14.09-17,14.09-4.69,0-9.82-1.45-12.43-3.18Z"/><path class="cls-1" d="M179.48,44v8.38h9.1V57.2h-9.1V76.06c0,4.34,1.22,6.79,4.76,6.79a11.87,11.87,0,0,0,3.69-.43l.29,4.84a17.44,17.44,0,0,1-5.64.87,9,9,0,0,1-6.86-2.68c-1.73-2-2.46-5-2.46-9.17V57.2h-5.42V52.36h5.42v-6.5Z"/><path class="cls-1" d="M225,77.72c0,3.69.08,6.87.29,9.61h-5.63l-.36-5.71h-.15a13.07,13.07,0,0,1-11.56,6.51c-5.49,0-12.07-3.11-12.07-15.32V52.36h6.36V71.65c0,6.65,2.1,11.2,7.81,11.2A9.15,9.15,0,0,0,218.06,77a8.74,8.74,0,0,0,.58-3.25V52.36H225Z"/><path class="cls-1" d="M265.67,36V78.3c0,3.11.14,6.65.29,9h-5.64L260,81.26h-.21c-1.88,3.91-6.07,6.87-11.78,6.87-8.45,0-15-7.16-15-17.78-.07-11.63,7.23-18.71,15.68-18.71,5.42,0,9,2.53,10.55,5.27h.14V36ZM259.38,66.6a11.11,11.11,0,0,0-.29-2.68,9.34,9.34,0,0,0-9.17-7.29c-6.58,0-10.48,5.78-10.48,13.43C239.44,77.15,243,83,249.77,83a9.62,9.62,0,0,0,9.32-7.59,10.87,10.87,0,0,0,.29-2.74Z"/><path class="cls-1" d="M283.37,42.54a3.8,3.8,0,0,1-4.05,3.9,3.74,3.74,0,0,1-3.83-3.9,3.88,3.88,0,0,1,4-4A3.82,3.82,0,0,1,283.37,42.54Zm-7.08,44.79v-35h6.36v35Z"/><path class="cls-1" d="M324.84,69.56c0,12.93-9,18.57-17.41,18.57-9.39,0-16.76-6.94-16.76-18,0-11.64,7.73-18.5,17.34-18.5C318.05,51.64,324.84,58.94,324.84,69.56Zm-27.67.36c0,7.66,4.33,13.44,10.55,13.44,6.07,0,10.62-5.71,10.62-13.58,0-5.93-3-13.37-10.48-13.37S297.17,63.35,297.17,69.92Z"/><path class="cls-2" d="M88.53,80.9h5.89v4.58h-9L70.53,63.14H62.59V80.9h7.77v4.58H50.8V80.9h6.71V41.53l-6.71-.82V36.38a32.34,32.34,0,0,0,7.53,1c4.17,0,8.43-1,12.61-1,8.1,0,15.63,3.68,15.63,12.68,0,7-4.18,11.38-10.64,13.26ZM62.59,58.72l4.25.08C77.24,59,81.25,55,81.25,49.64,81.25,43.41,76.75,41,71,41a78.53,78.53,0,0,0-8.43.57Z"/><path class="cls-1" d="M321.27,38.56a4.1,4.1,0,1,0,4.1,4.1A4.11,4.11,0,0,0,321.27,38.56Zm3.43,4.1a3.43,3.43,0,1,1-3.43-3.42A3.44,3.44,0,0,1,324.7,42.66Z"/><path class="cls-1" d="M322.73,44.34l-1-1.49a1.25,1.25,0,0,0,.89-1.22c0-.9-.76-1.22-1.48-1.22a5.07,5.07,0,0,0-.56.05,5.09,5.09,0,0,1-.55,0,3.2,3.2,0,0,1-.64-.08l-.12,0V41l.6.07v3.3h-.6v.6h1.92v-.6h-.69V43H321l1.28,1.93,0,0h.94v-.6Zm-.79-2.66a.59.59,0,0,1-.24.5,1.5,1.5,0,0,1-.88.21h-.34V41.05a5.14,5.14,0,0,1,.65,0C321.5,41,321.94,41.12,321.94,41.68Z"/><path class="cls-1" d="M390.78,75.13a10.82,10.82,0,0,1-4.07,8.92q-4.08,3.26-11.34,3.26a26.6,26.6,0,0,1-11.84-2.52V76.56a48.93,48.93,0,0,0,7.17,2.66,21.37,21.37,0,0,0,5.36.77,7.57,7.57,0,0,0,4.47-1.12,3.79,3.79,0,0,0,1.56-3.31,3.66,3.66,0,0,0-.69-2.19,7.58,7.58,0,0,0-2-1.84A51.93,51.93,0,0,0,374,68.7a26.2,26.2,0,0,1-5.75-3.46,13.39,13.39,0,0,1-3.06-3.86A11.07,11.07,0,0,1,364,56.23a10.79,10.79,0,0,1,3.76-8.72q3.77-3.18,10.39-3.17a24.31,24.31,0,0,1,6.22.77,42.59,42.59,0,0,1,6.19,2.17l-2.86,6.89a42,42,0,0,0-5.53-1.91,17.43,17.43,0,0,0-4.3-.55A5.64,5.64,0,0,0,374,52.89a3.85,3.85,0,0,0-1.35,3,3.72,3.72,0,0,0,.55,2.05A5.94,5.94,0,0,0,375,59.68a54,54,0,0,0,5.61,2.93c3.91,1.86,6.59,3.74,8,5.61A11,11,0,0,1,390.78,75.13Z"/><path class="cls-1" d="M414,87.31q-7.73,0-12.07-4.26T397.58,71q0-8,4-12.42t11.11-4.39q6.78,0,10.55,3.86T427,68.7v4.23H406.41a8.43,8.43,0,0,0,2.2,5.8,7.76,7.76,0,0,0,5.78,2.09,24,24,0,0,0,5.46-.6,27.26,27.26,0,0,0,5.37-1.92v6.75a20.36,20.36,0,0,1-4.89,1.7A30.87,30.87,0,0,1,414,87.31Zm-1.23-26.93a5.54,5.54,0,0,0-4.35,1.75,8.14,8.14,0,0,0-1.8,5h12.24a7.29,7.29,0,0,0-1.69-5A5.71,5.71,0,0,0,412.76,60.38Z"/><path class="cls-1" d="M453.43,54.17a14.27,14.27,0,0,1,2.95.26l-.66,8.18a10.08,10.08,0,0,0-2.58-.29,9.23,9.23,0,0,0-6.5,2.14,7.77,7.77,0,0,0-2.33,6V86.74h-8.72v-32h6.6l1.29,5.38h.43a12,12,0,0,1,4-4.33A9.86,9.86,0,0,1,453.43,54.17Z"/><path class="cls-1" d="M473.29,86.74l-12.18-32h9.12L476.41,73a32.84,32.84,0,0,1,1.28,6.55h.18A28.33,28.33,0,0,1,479.15,73l6.15-18.21h9.12l-12.18,32Z"/><path class="cls-1" d="M514.07,87.31q-7.71,0-12.06-4.26T497.66,71q0-8,4-12.42t11.11-4.39q6.78,0,10.55,3.86t3.77,10.67v4.23H506.5a8.38,8.38,0,0,0,2.2,5.8,7.76,7.76,0,0,0,5.78,2.09,24,24,0,0,0,5.46-.6,27.26,27.26,0,0,0,5.37-1.92v6.75a20.36,20.36,0,0,1-4.89,1.7A30.9,30.9,0,0,1,514.07,87.31Zm-1.22-26.93a5.54,5.54,0,0,0-4.35,1.75,8.14,8.14,0,0,0-1.8,5h12.24a7.33,7.33,0,0,0-1.69-5A5.73,5.73,0,0,0,512.85,60.38Z"/><path class="cls-1" d="M553.52,54.17a14.1,14.1,0,0,1,2.94.26l-.65,8.18a10.08,10.08,0,0,0-2.58-.29,9.23,9.23,0,0,0-6.5,2.14,7.73,7.73,0,0,0-2.33,6V86.74h-8.72v-32h6.6l1.29,5.38H544a12,12,0,0,1,4-4.33A9.91,9.91,0,0,1,553.52,54.17Z"/></svg>