<?xml version="1.0" encoding="utf-8"?>
<!-- Generator: Adobe Illustrator 26.5.0, SVG Export Plug-In . SVG Version: 6.00 Build 0)  -->
<svg version="1.1" id="Layer_1" xmlns="http://www.w3.org/2000/svg" xmlns:xlink="http://www.w3.org/1999/xlink" x="0px" y="0px"
	 width="184px" height="182.5px" viewBox="0 0 184 182.5" style="enable-background:new 0 0 184 182.5;" xml:space="preserve">
<style type="text/css">
	.st0{fill:#447099;}
</style>
<g id="full-rgb">
	<polygon id="fullLogo-8" class="st0" points="38,73.1 46.2,69.5 82.9,53.3 90.9,49.7 179.7,10.5 179.7,57.8 143.8,73.1 135.7,69.5 
		173.2,53.5 173.2,20.5 98.9,53.3 90.9,56.8 54.3,73 46.2,76.6 20.3,88 20.3,96.5 45.8,107.8 53.9,111.4 91.5,128 99.5,131.5 
		173.2,164.1 173.2,130.7 136.1,114.9 144.2,111.3 179.7,126.4 179.7,174 91.5,135.1 83.6,131.6 45.8,114.9 37.6,111.3 13.8,100.7 
		13.8,83.8 	"/>
	<polygon class="st0" points="99.2,92.1 135.6,76.6 127.5,73 82.6,92.1 127.9,111.4 136,107.8 	"/>
	<polygon id="fullLogo-9" class="st0" points="45.8,107.8 53.9,111.4 90.9,95.6 82.7,92.1 	"/>
	<polygon id="fullLogo-10" class="st0" points="54.3,73 46.2,76.6 82.7,92.1 90.9,88.6 	"/>
	<polygon id="fullLogo-11" class="st0" points="143.8,73.1 135.7,69.5 98.9,53.3 90.9,49.7 2.1,10.5 2.1,57.8 38,73.1 46.2,69.5 
		8.6,53.5 8.6,20.5 82.9,53.3 90.9,56.8 127.5,73 135.6,76.6 161.6,88 161.6,96.5 136.1,107.8 127.9,111.4 90.4,128 82.4,131.5 
		8.6,164.1 8.6,130.7 45.8,114.9 37.6,111.3 2.1,126.4 2.1,174 90.3,135.1 98.3,131.6 136.1,114.9 144.2,111.3 168,100.7 168,83.8 	
		"/>
</g>
</svg>
