<?xml version="1.0" encoding="utf-8"?>
<!-- Generator: Adobe Illustrator 23.0.1, SVG Export Plug-In . SVG Version: 6.00 Build 0)  -->
<svg version="1.1" xmlns="http://www.w3.org/2000/svg" xmlns:xlink="http://www.w3.org/1999/xlink" x="0px" y="0px"
	 viewBox="0 0 215 215" style="enable-background:new 0 0 215 215;" xml:space="preserve">
<style type="text/css">
	.st0{fill:#FFFFFF;}
	.st1{fill:#75AADB;}
	.st2{fill:url(#SVGID_1_);}
	.st3{fill:url(#SVGID_2_);}
	.st4{fill:#4D4D4D;}
	.st5{fill:url(#SVGID_3_);}
	.st6{fill:url(#SVGID_4_);}
	.st7{fill:url(#SVGID_5_);}
	.st8{fill:url(#SVGID_6_);}
	.st9{fill:url(#SVGID_7_);}
	.st10{fill:url(#SVGID_8_);}
	.st11{opacity:0.3;}
	.st12{fill:url(#SVGID_9_);}
	.st13{fill:url(#SVGID_10_);}
	.st14{fill:#FDFEFF;}
	.st15{fill:#6AAAE4;}
	.st16{fill:#4A4F54;}
	.st17{fill:#470054;}
</style>
<g id="Gray_Logo">
	<g>
		<circle class="st1" cx="107.5" cy="107.5" r="106"/>
		<g>
			<g>
				<path class="st0" d="M143.7,141.3h11.5v8.9h-17.6l-29.1-43.6H93.1v34.6h15.2v8.9H70.1v-8.9h13.1V64.5l-13.1-1.6v-8.5
					c5,1.1,9.3,1.9,14.7,1.9c8.1,0,16.4-1.9,24.6-1.9c15.8,0,30.5,7.2,30.5,24.8c0,13.6-8.1,22.2-20.8,25.9L143.7,141.3z M93.1,98.1
					l8.3,0.2c20.3,0.3,28.1-7.5,28.1-17.9c0-12.1-8.8-16.9-20-16.9c-5.3,0-10.7,0.5-16.4,1.1V98.1z"/>
			</g>
		</g>
	</g>
</g>
<g id="Black_Letters">
</g>
<g id="Blue_Gradient_Letters">
</g>
<g id="White_Letters">
</g>
<g id="R_Ball">
</g>
</svg>
