<?xml version="1.0" encoding="UTF-8"?>
<svg xmlns="http://www.w3.org/2000/svg" id="Logo" viewBox="0 0 688 187.26">
  <defs>
    <style>.cls-1{fill:#447099;}.cls-1,.cls-2,.cls-3,.cls-4{stroke-width:0px;}.cls-2{fill:#404041;}.cls-3{fill:#ee6331;}.cls-4{fill:#404041;}</style>
  </defs>
  <path class="cls-4" d="M379.02,45.66c30.96,0,52.79,21.08,52.79,50.36s-21.82,50.18-52.79,50.18-52.42-21.08-52.42-50.18,21.45-50.36,52.42-50.36M379.02,121.02c14.74,0,24.81-9.33,24.81-25s-11.19-25.18-24.81-25.18-24.44,9.14-24.44,25.18c0,14.18,9.89,25,24.44,25"></path>
  <path class="cls-4" d="M550.79,6c8.77,0,15.11,6.28,15.11,14.57,0,8.71-6.34,14.98-15.11,14.98-9.51,0-15.3-6.27-15.3-14.98s6.34-14.57,15.3-14.57M537.17,47.49h27.05v97h-27.05V47.49Z"></path>
  <path class="cls-4" d="M576.43,47.49h18.47v-22.57h27.05v22.57h29.23v25.18h-29.23v31.52c0,11.75,2.61,16.23,9.89,16.23,6.34,0,11.38-2.24,16.6-6.34l13.78,17.08c-6.72,7.09-19.75,14.44-32.99,14.44-20.33,0-34.32-11.01-34.32-33.39v-39.55h-18.47v-25.18Z"></path>
  <path class="cls-4" d="M523.17,59.35c-6.63-6.36-20.38-14.58-39.91-14.58-27.81,0-44.17,11.5-44.17,30.36,0,29.27,46.62,29.98,57.63,36.44,1.99,1.11,3.17,2.66,2.46,4.91-2.07,6.49-28.2,9.66-47.47-8.97l-15.72,18.74c7,9.27,22.44,20.15,47.49,20.15,23.27,0,43.39-9.43,43.39-30.92,0-19.27-17.95-27.02-33.91-31.56-4.54-1.25-8.93-2.28-12.73-3.3-6.29-1.61-14.72-3.42-13.37-8.12,2.45-8.54,30.5-3.19,40.31,5.79l16.03-18.93Z"></path>
  <path class="cls-4" d="M221.29,47.72h27.09v5.05c5.04-4.67,14.2-7.1,21.68-7.1,29.52,0,47.84,20.37,47.84,49.15s-19.06,51.57-48.59,51.57c-9.34,0-17.94-1.49-20.93-4.86v40.74h-27.09V47.72ZM248.38,81.91v31.02c2.99,4.48,9.53,8.22,17.19,8.22,15.14,0,24.29-9.53,24.29-24.29,0-17.19-8.59-25.97-22.8-25.97-8.97,0-15.13,4.48-18.68,11.02"></path>
  <polygon id="fullLogo-8" class="cls-3" points="39.37 76.47 47.38 72.9 83.6 56.76 91.5 53.24 179 14.23 179 61.28 143.62 76.47 135.62 72.9 172.61 57.01 172.61 24.14 99.4 56.76 91.5 60.29 55.43 76.36 47.43 79.93 21.91 91.3 21.91 99.74 47.04 110.95 55.04 114.52 92.06 131.01 99.92 134.51 172.61 166.91 172.61 133.69 136.01 117.98 144.02 114.41 179 129.43 179 176.81 92.09 138.07 84.24 134.57 46.99 117.98 38.98 114.41 15.51 103.94 15.51 87.11 39.37 76.47"></polygon>
  <polygon class="cls-3" points="99.65 95.35 135.57 79.93 127.56 76.36 83.33 95.35 127.95 114.52 135.95 110.95 99.65 95.35"></polygon>
  <polygon id="fullLogo-9" class="cls-1" points="47.04 110.95 55.04 114.52 91.5 98.86 83.34 95.35 47.04 110.95"></polygon>
  <polygon id="fullLogo-10" class="cls-1" points="55.43 76.36 47.43 79.93 83.34 95.35 91.5 91.85 55.43 76.36"></polygon>
  <polygon id="fullLogo-11" class="cls-1" points="143.62 76.47 135.62 72.9 99.4 56.76 91.5 53.24 4 14.23 4 61.28 39.37 76.47 47.38 72.9 10.39 57.01 10.39 24.14 83.6 56.76 91.5 60.29 127.57 76.36 135.57 79.93 161.09 91.3 161.09 99.74 135.96 110.95 127.96 114.52 90.94 131.01 83.08 134.51 10.39 166.91 10.39 133.69 46.99 117.98 38.98 114.41 4 129.43 4 176.81 90.91 138.07 98.76 134.57 136.01 117.98 144.02 114.41 167.49 103.94 167.49 87.11 143.62 76.47"></polygon>
  <path class="cls-2" d="M680.64,55.86c0,4.85-3.81,8.65-8.76,8.65s-8.81-3.81-8.81-8.65,3.91-8.55,8.81-8.55,8.76,3.81,8.76,8.55ZM665.26,55.86c0,3.81,2.81,6.83,6.67,6.83s6.52-3.02,6.52-6.78-2.76-6.88-6.57-6.88-6.62,3.08-6.62,6.83ZM670.53,60.34h-1.98v-8.55c.78-.16,1.88-.26,3.28-.26,1.62,0,2.35.26,2.97.63.47.36.83,1.04.83,1.88,0,.94-.73,1.67-1.77,1.98v.1c.83.31,1.3.94,1.56,2.08.26,1.3.42,1.82.63,2.14h-2.14c-.26-.31-.42-1.09-.68-2.08-.16-.94-.68-1.36-1.77-1.36h-.94v3.44ZM670.58,55.49h.94c1.09,0,1.98-.36,1.98-1.25,0-.78-.57-1.3-1.82-1.3-.52,0-.89.05-1.09.1v2.45Z"></path>
</svg>
